<svg height="457" width="2500" xmlns="http://www.w3.org/2000/svg" viewBox="-1.6958582336895187 0.03999999999999915 301.9458582336896 55.34"><path d="M66.23 22.46c-9.63-2.45-11.47-2.92-11.47-5.71s3.12-4.46 5.82-4.46c4.04 0 7.32 1.17 7.57 5.82h8.19c0-8.88-7.38-12.5-15.4-12.5-6.93 0-14.37 3.76-14.37 11.64 0 7.21 5.76 9.41 11.47 10.92s11.42 2.2 11.42 6.35-4.51 4.79-7.49 4.79c-4.51 0-8.52-2-8.52-7.1h-8.16c0 9.47 7.85 13.67 16.37 13.67 10.44 0 15.98-5.26 15.98-12.34.01-8.6-8.62-10.38-11.41-11.08zm39.82-5.21h-8.94l-9.63 10V6.65h-7.63v38.43h7.66V35.5l2.95-2.78 7.63 12.42h9.24L95.67 27.47zm19.66 14.6c0 5.57-1.78 7.96-5.9 7.96-3.56 0-4.9-2.26-4.9-6.82V17.25h-7.55v17.13c0 6.88 2.06 11.47 10.16 11.47 3.44.03 6.65-1.72 8.49-4.62h.17v3.87h7.27V17.25h-7.63zM30.59 14.94c-1.5-4.15 8.63-14.9-9.94-14.9C4.83.05 3.36 15.75 2.66 16.98A13.956 13.956 0 0 0 .4 21.55c-.42 2.03 0 4.26 1.31 4.26 1.95 0-.45-3.93 1.95-3.93 3.04 0 6.6 4.93 7.57 7.71-1.62 2.78-3.9 4.82-5.57 4.04a4.943 4.943 0 0 1-3.34-4.48c0-1.81-1.67-1.75-1.5.56.2 2.67 1.65 5.09 3.9 6.54a21.21 21.21 0 0 1 5.96 7.49c.75 1.84 1.73 2.78 4.43 2.78s.64 2.34 2.48 2.34.75-2.59 1.84-2.59 0 2.48 2.06 2.48c3.15 0 1.73-3.93 2.78-4.59 1.06-.67 14.51-7.85 14.28-16.71s-6.43-8.36-7.96-12.51zM17.39 40a6.291 6.291 0 0 0-4.98-.56c-1.2.45-2.37-.22-1.39-3.26.44-1.54 1.1-3.01 1.95-4.37 2.35 2.43 4.51 5.03 6.49 7.77.11.89-1.31 1.23-2.06.33V40zm9.19-5.04c-4.0"/></svg>